<svg width="226" height="160" viewBox="0 0 226 160" fill="none" xmlns="http://www.w3.org/2000/svg">
<g clip-path="url(#clip0_506_4297)">
<path d="M0.313304 156.348C9.65778 162.394 34.3951 163.944 58.5877 121.774C88.8287 69.0631 167.411 72.4641 194.12 53.76C215.488 38.7967 224.067 12.0066 225.686 0.481934" stroke="white"/>
<path d="M0.314324 95.9778C7.66027 99.6814 27.1072 100.631 46.1261 74.7947C69.8997 42.5 131.676 44.5836 152.673 33.1241C169.471 23.9565 176.215 7.54285 177.488 0.481934" stroke="white"/>
<path d="M0.313741 48.7788C5.73555 50.6521 20.0878 51.1321 34.1246 38.0655C51.6704 21.7325 97.2634 22.7862 112.76 16.9906C125.157 12.3541 130.135 4.05296 131.074 0.481934" stroke="white"/>
<path d="M0.314864 123.419C8.62319 128.187 30.6174 129.409 52.1272 96.1494C79.0146 54.574 148.883 57.2564 172.63 42.504C191.628 30.7021 199.256 9.57181 200.695 0.481934" stroke="white"/>
<path d="M0.314177 76.2198C6.84621 79.1576 24.1377 79.9104 41.0485 59.4198C62.1873 33.8066 117.117 35.4591 135.787 26.3706C150.723 19.0997 156.72 6.08193 157.852 0.481934" stroke="white"/>
<path d="M0.314169 24.6303C4.38499 25.5669 15.1617 25.8069 25.7012 19.2737C38.8754 11.1072 73.1091 11.6341 84.7449 8.73629C94.0533 6.41803 97.7908 2.26745 98.4961 0.481934" stroke="white"/>
</g>
<defs>
<clipPath id="clip0_506_4297">
<rect width="226" height="160" fill="white" transform="matrix(-1 8.74228e-08 8.74228e-08 1 226 0)"/>
</clipPath>
</defs>
</svg>
