<svg width="245" height="189" viewBox="0 0 245 189" fill="none" xmlns="http://www.w3.org/2000/svg">
<g clip-path="url(#clip0_515_3552)">
<path d="M0.199505 184.343C10.4094 191.147 37.161 192.49 62.4875 143.428C94.1458 82.101 179.098 84.6139 207.592 62.566C230.387 44.9277 239.142 13.8803 240.67 0.561401" stroke="#5C5EC9"/>
<path d="M-0.956719 114.725C7.04947 118.865 28.0748 119.611 48.125 89.4762C73.1879 51.8087 139.961 53.1038 162.423 39.5126C180.393 28.6396 187.364 9.59092 188.604 1.42566" stroke="#5C5EC9"/>
<path d="M-1.86011 60.2968C4.03254 62.3598 19.5455 62.656 34.4583 47.3364C53.0992 28.187 102.37 28.5847 118.999 21.6235C132.303 16.0546 137.521 6.39265 138.467 2.25781" stroke="#5C5EC9"/>
<path d="M-0.430002 146.369C8.63617 151.72 32.4183 152.734 55.0173 113.994C83.2661 65.5686 158.791 67.4091 184.161 49.9713C204.458 36.0211 212.293 11.5175 213.674 1.00952" stroke="#5C5EC9"/>
<path d="M-1.33287 91.9409C5.77946 95.2116 24.4727 95.7697 42.348 71.8373C64.6925 41.922 124.061 42.8427 144.055 32.0273C160.05 23.375 166.279 8.25575 167.394 1.77771" stroke="#5C5EC9"/>
<path d="M-2.32241 32.4495C2.09294 33.4566 13.7389 33.5401 24.9989 25.8173C39.0738 16.1636 76.0641 16.1574 88.578 12.6072C98.5888 9.76691 102.547 4.91357 103.274 2.84192" stroke="#5C5EC9"/>
</g>
<defs>
<clipPath id="clip0_515_3552">
<rect width="244.166" height="184.533" fill="white" transform="matrix(-0.999862 0.0165959 0.0165959 0.999862 241 0)"/>
</clipPath>
</defs>
</svg>
