<svg width="717" height="332" viewBox="0 0 717 332" fill="none" xmlns="http://www.w3.org/2000/svg">
<g clip-path="url(#clip0_506_3671)">
<path d="M719 324.423C689.23 336.968 610.421 340.183 533.347 252.682C437.004 143.306 186.653 150.363 101.562 111.552C33.4893 80.5032 6.15703 24.9137 1 1" stroke="#75D3E5"/>
<path d="M718.999 199.154C695.596 206.839 633.641 208.809 573.05 155.199C497.311 88.1875 300.501 92.5109 233.607 68.7325C180.093 49.7097 158.606 15.6514 154.551 1" stroke="#75D3E5"/>
<path d="M719 101.216C701.727 105.103 656.003 106.099 611.284 78.9859C555.386 45.0949 410.134 47.2814 360.764 35.2555C321.268 25.6348 305.41 8.40988 302.418 1" stroke="#75D3E5"/>
<path d="M718.999 256.094C692.53 265.989 622.46 268.524 553.933 199.51C468.274 113.241 245.685 118.807 170.03 88.1958C109.505 63.7068 85.2043 19.8615 80.6191 1" stroke="#75D3E5"/>
<path d="M719 158.156C698.19 164.252 643.102 165.814 589.227 123.296C521.882 70.1487 346.884 73.5776 287.405 54.7189C239.821 39.6319 220.716 12.62 217.111 1" stroke="#75D3E5"/>
<path d="M718.999 51.1078C706.03 53.0514 671.697 53.5494 638.12 39.993C596.149 23.0474 487.086 24.1407 450.016 18.1278C420.361 13.3174 408.454 4.70494 406.207 1" stroke="#75D3E5"/>
</g>
<defs>
<clipPath id="clip0_506_3671">
<rect width="720" height="332" fill="white"/>
</clipPath>
</defs>
</svg>
