<svg width="22" height="36" viewBox="0 0 22 36" fill="none" xmlns="http://www.w3.org/2000/svg">
<path fill-rule="evenodd" clip-rule="evenodd" d="M3.34803 32.086L2.38753 31.6089C2.38753 31.6089 2.04033 32.1189 1.78479 32.4219C1.52263 32.7326 1.3684 32.8808 1.0441 33.1336C1.12559 33.3934 1.16552 33.5762 1.18315 33.8014L0.627255 34.7798C0.490831 35.0199 0.574869 35.3251 0.814959 35.4615C1.05505 35.5979 1.36027 35.5139 1.4967 35.2738L2.0847 34.239C2.29648 34.127 2.48775 34.0603 2.75643 33.9991C2.81675 33.6054 2.86484 33.3994 2.98541 33.0182C3.10294 32.6467 3.34803 32.086 3.34803 32.086Z" fill="#747474"/>
<path d="M1.06201 35.0267L2.14647 33.1641" stroke="#AEAEAE" stroke-linecap="round"/>
<ellipse cx="2.2142" cy="33.0357" rx="0.203336" ry="0.192686" fill="#AEAEAE"/>
<rect width="1.77902" height="0.247775" rx="0.123887" transform="matrix(0.887209 0.461369 -0.461366 0.887209 2.10547 31.3613)" fill="#747474"/>
<path d="M2.72017 30.3126C2.79659 29.8468 3.2998 29.5856 3.72473 29.7913L3.99858 29.9239C4.45173 30.1432 4.56397 30.7381 4.22191 31.1075C4.16123 31.173 4.11276 31.2489 4.07877 31.3314L4.01406 31.4887C3.82737 31.9423 3.29427 32.1414 2.85593 31.9211C2.393 31.6885 2.24744 31.0973 2.54945 30.6764L2.59708 30.61C2.66045 30.5217 2.70258 30.4199 2.72017 30.3126Z" fill="#5F5F5F"/>
<rect width="3.38727" height="20.5979" rx="1.69363" transform="matrix(0.90009 0.435706 -0.435704 0.90009 15.1337 2.91162)" fill="#767676"/>
<path d="M16.4285 5.10458C16.2821 4.71424 16.7055 4.35537 17.0666 4.56376L17.1126 4.59031C17.3216 4.71097 17.403 4.97195 17.2996 5.19007L10.6017 19.3174C10.5213 19.4869 10.2886 19.5079 10.1791 19.3556C10.1275 19.2837 10.1184 19.1898 10.1553 19.1093L16.4165 5.44569C16.4657 5.33813 16.4701 5.21536 16.4285 5.10458Z" fill="black" fill-opacity="0.2"/>
<path d="M15.8664 3.33812C15.8664 3.33812 16.8139 2.15985 17.3352 2.39755C17.8641 2.6387 17.5391 4.14779 17.5391 4.14779" stroke="#747474" stroke-width="4"/>
<path d="M17.8726 4.81076L18.5945 4.76135C18.9233 4.73885 19.2174 4.96469 19.2805 5.28813V5.28813C19.309 5.43406 19.2868 5.58534 19.2177 5.71698L13.9982 15.6597M13.9982 15.6597L13.0224 17.5185C12.8283 17.8883 12.2758 17.8008 12.2053 17.3892V17.3892C12.1945 17.3257 12.1975 17.2601 12.2165 17.1986C12.6199 15.8901 13.5662 15.6256 13.9982 15.6597Z" stroke="#747474" stroke-width="4"/>
<rect width="2.76763" height="8.91983" rx="1" transform="matrix(0.900091 0.435703 -0.435701 0.900091 6.49695 21.3264)" fill="#767676"/>
<line x1="1.5" y1="-1.5" x2="1.82423" y2="-1.5" transform="matrix(0.894427 0.447215 -0.447213 0.894427 6.20325 21.4502)" stroke="#5F5F5F" stroke-width="3" stroke-linecap="round"/>
</svg>
